<?xml version="1.0" encoding="utf-8"?>
<!-- Generator: Adobe Illustrator 22.1.0, SVG Export Plug-In . SVG Version: 6.00 Build 0)  -->
<svg version="1.1" id="Camada_1" xmlns="http://www.w3.org/2000/svg" xmlns:xlink="http://www.w3.org/1999/xlink" x="0px" y="0px"
	 viewBox="0 0 297.3 56.8" style="enable-background:new 0 0 297.3 56.8;" xml:space="preserve">
<g>
	<path d="M10.3,15.2l-0.8-11H49v11H35.4l-0.6,38.1H22.9V15.2H10.3z"/>
	<path d="M92.4,53l-11.6-0.3V29.2l-16,8.8v13.2l-11.7,0.3L52.9,6.1h12v20.4l15.9-9.4V5.2l11-0.8L92.4,53z"/>
	<path d="M112.6,5l0.6,47.5H99.4L99.2,5.2L112.6,5z"/>
	<path d="M123.9,39.9c0.4,0.1,1.4,1,3.2,2.8c1.7,1.8,2.6,2.8,2.6,3.1c0,0.3-0.9,1.3-2.6,3.1c-1.7,1.8-2.8,2.7-3.2,2.7
		c-0.4,0-1.5-0.8-3.3-2.7c-1.8-1.8-2.7-2.9-2.5-3.2c0.2-0.5,1.2-1.6,2.8-3.4C122.5,40.6,123.6,39.8,123.9,39.9z"/>
	<path d="M155.7,4.3c0.7,0,3.1,4,7.3,12c4.2,8,8.2,16,11.9,24.2c3.7,8.1,5.4,12.4,5.1,12.7c-0.7,0.5-8.9,0.6-24.5,0.2
		c-15.6-0.4-23.6-0.7-24-1.1c-0.3-0.3,0.6-2.9,2.9-8c2.3-5.1,4.9-10.5,7.8-16.5c3-5.9,5.8-11.3,8.6-16.2
		C153.5,6.7,155.2,4.3,155.7,4.3z M164.4,43.7c0.2-0.2-1.1-3.1-3.9-8.8c-2.8-5.7-4.4-8.6-4.8-8.6c-0.4,0-2,2.8-4.8,8.4
		c-2.8,5.6-4.1,8.5-3.8,8.7c0.1,0.1,3,0.2,8.6,0.3C161.2,43.9,164.2,43.9,164.4,43.7z"/>
	<path d="M197.4,39.7c0.2,0.3,2.4,0.5,6.6,0.6c4.2,0.1,10.4,0.1,18.6,0.1l-0.5,12.1l-27.9,0.8c-6.2,0.1-9.4,0-9.5-0.2
		c-0.3-0.5-0.5-4.8-0.8-12.9c-0.3-8.2-0.4-16.2-0.6-24.1l-0.2-11.9l13.2,0.4C196.7,27.6,197.1,39.4,197.4,39.7z"/>
	<path d="M286.8,52.3h-13.9c0.1-12.9,0-20.1-0.2-21.4c0-0.1-1.3,1.1-3.9,3.7c-2.6,2.6-5.2,5.2-8,7.9c-2.8,2.7-4.3,4-4.6,4
		c-0.5,0-2-1.4-4.7-4.3c-2.7-2.9-5.2-5.6-7.7-8.3c-2.4-2.7-3.7-3.9-3.8-3.6c-0.1,0.4-0.2,1.5-0.3,3.2c-0.1,1.7-0.2,3.7-0.3,5.8
		c-0.1,2.2-0.1,4.3-0.2,6.4c0,2.1-0.1,3.9-0.1,5.3v2.1l-13.9-1.2c2-31.1,3.7-47,5.1-47.9c0.4-0.3,1.6,0.4,3.5,2
		c1.9,1.6,4.1,3.7,6.6,6.2c2.5,2.5,4.9,5,7.3,7.6c2.4,2.5,4.5,4.7,6.1,6.5c1.7,1.8,2.6,2.7,2.7,2.6c0.1,0,2.3-2.3,6.6-6.7
		c4.3-4.4,8.7-8.7,13-12.7c4.4-4.1,6.8-5.9,7.4-5.5c0.4,0.3,0.7,2.2,1.1,5.6c0.4,3.4,0.7,7.4,0.9,12.1c0.2,4.7,0.4,9.3,0.6,13.9
		c0.2,4.6,0.3,8.5,0.4,11.7L286.8,52.3z"/>
</g>
</svg>
